#!OML:ASF I:\Actors\actors\Patient Classification 2\Patient 1\Session 1\actor1.ASF
:FULLY-SPECIFIED
:DEGREES
256
root -0.538148 18.7976 5.49998 8.2871 -11.2702 3.2169
lowerback 19.7612 -6.31156 6.74133
upperback 2.12926 -6.45178 3.89479
thorax -8.97944 -3.23736 2.22307
lowerneck -15.289 7.6941 5.89549
upperneck 23.6902 14.0318 -17.73
head 12.1825 4.84461 -5.43105
rclavicle -7.15625e-015 0
rhumerus -48.0142 20.9314 -91.262
rradius 114.723
rwrist -79.3047
rhand -20.5754 -39.5196
rfingers 7.12502
rthumb 5.78427 290.579
lclavicle -7.15625e-015 0
lhumerus -2.99541 -36.3827 93.2248
lradius 90.7605
lwrist 75.0035
lhand -31.2769 -20.6528
lfingers 7.12502
lthumb -4.55056 9.27832
rfemur 0 0 0
rtibia 0
rfoot 0 0
rtoes 0
lfemur -10.2095 3.41345 -18.3737
ltibia 19.0264
lfoot -20.2489 14.0376
ltoes -55.0461
257
root -0.528502 18.7996 5.48467 8.54577 -11.645 3.15498
lowerback 19.8912 -6.37046 6.61833
upperback 2.4194 -6.59719 3.46821
thorax -8.76932 -3.30565 1.85782
lowerneck -15.0089 7.82396 6.28376
upperneck 23.2268 14.0691 -17.8675
head 11.9909 4.9207 -5.53036
rclavicle -2.50469e-014 4.69132e-014
rhumerus -49.6109 21.3433 -91.4776
rradius 113.649
rwrist -78.6135
rhand -23.607 -44.6163
rfingers 7.12502
rthumb 2.85695 285.423
lclavicle -2.50469e-014 4.69132e-014
lhumerus -5.97988 -35.2301 94.7299
lradius 89.6103
lwrist 77.3917
lhand -31.6025 -20.7839
lfingers 7.12502
lthumb -4.86495 9.14026
rfemur 0 0 0
rtibia 0
rfoot 0 0
rtoes 0
lfemur -10.5434 3.41003 -18.4163
ltibia 19.0852
lfoot -20.3419 14.4322
ltoes -55.0091
258
root -0.543605 18.8002 5.48045 8.42929 -11.606 3.17173
lowerback 20.2843 -6.50731 6.30039
upperback 2.77081 -6.8641 3.01501
thorax -8.61948 -3.42338 1.63068
lowerneck -14.7839 7.85426 6.6271
upperneck 22.8548 13.9736 -17.9394
head 11.8171 4.93143 -5.62311
rclavicle 6.55989e-014 -3.97569e-014
rhumerus -51.4333 21.5387 -91.7623
rradius 112.669
rwrist -79.2445
rhand -26.148 -47.1218
rfingers 7.12502
rthumb 0.402803 282.899
lclavicle 6.55989e-014 -3.97569e-014
lhumerus -8.67354 -33.8503 95.9862
lradius 88.7033
lwrist 79.9958
lhand -33.4036 -18.2463
lfingers 7.12502
lthumb -6.60382 11.6307
rfemur 0 0 0
rtibia 0
rfoot 0 0
rtoes 0
lfemur -10.414 3.5453 -18.36
ltibia 19.086
lfoot -20.2599 14.2856
ltoes -55.0663
259
root -0.546118 18.8019 5.47185 8.49823 -11.8421 3.20567
lowerback 20.6261 -6.50513 5.98174
upperback 3.02303 -6.95479 2.52559
thorax -8.55204 -3.45971 1.31814
lowerneck -14.4769 7.84786 6.94843
upperneck 22.5003 13.8417 -18.0257
head 11.6284 4.92525 -5.72698
rclavicle -9.54166e-014 -1.51076e-014
rhumerus -53.4768 21.5854 -92.0434
rradius 111.77
rwrist -80.2392
rhand -27.3459 -47.2439
rfingers 7.12502
rthumb -0.754214 282.778
lclavicle -9.54166e-014 -1.51076e-014
lhumerus -11.1911 -32.8826 97.152
lradius 87.4587
lwrist 82.217
lhand -34.3945 -16.7113
lfingers 7.12502
lthumb -7.56038 13.1336
rfemur 0 0 0
rtibia 0
rfoot 0 0
rtoes 0
lfemur -10.474 3.55563 -18.4114
ltibia 19.051
lfoot -20.3683 14.4645
ltoes -54.9909
260
root -0.548691 18.8044 5.46586 8.59416 -12.1382 3.23683
lowerback 20.9534 -6.44661 5.53578
upperback 3.22911 -6.99893 2.07103
thorax -8.50706 -3.47079 1.10201
lowerneck -14.0624 7.88075 7.33119
upperneck 22.1773 13.7817 -18.1828
head 11.4538 4.95298 -5.8609
rclavicle 1.39149e-013 -4.92986e-014
rhumerus -55.6642 21.6423 -92.257
rradius 111.181
rwrist -80.4822
rhand -28.046 -48.2384
rfingers 7.12502
rthumb -1.43033 281.787
lclavicle 1.39149e-013 -4.92986e-014
lhumerus -13.7435 -32.2175 98.3481
lradius 86.1867
lwrist 84.6156
lhand -34.7684 -17.3726
lfingers 7.12502
lthumb -7.92127 12.459
rfemur 0 0 0
rtibia 0
rfoot 0 0
rtoes 0
lfemur -10.5102 3.62016 -18.4672
ltibia 18.9505
lfoot -20.4304 14.6529
ltoes -54.9262
261
root -0.556652 18.8069 5.46267 8.66836 -12.3132 3.227
lowerback 21.2323 -6.37191 5.049
upperback 3.44568 -7.03453 1.65107
thorax -8.41492 -3.47683 0.937815
lowerneck -14.3229 7.90677 7.22801
upperneck 22.6784 13.7517 -17.5649
head 11.6226 4.9534 -5.62385
rclavicle 2.3059e-014 3.29983e-014
rhumerus -57.8467 21.6776 -92.3439
rradius 110.887
rwrist -80.2606
rhand -28.6402 -49.9999
rfingers 7.12502
rthumb -2.00421 280.03
lclavicle 2.3059e-014 3.29983e-014
lhumerus -16.2825 -31.9316 99.4894
lradius 85.05
lwrist 87.832
lhand -34.3828 -19.3546
lfingers 7.12502
lthumb -7.54909 10.4907
rfemur 0 0 0
rtibia 0
rfoot 0 0
rtoes 0
lfemur -10.5232 3.82324 -18.4461
ltibia 18.8735
lfoot -20.3738 14.6413
ltoes -54.974
